<svg width="211" height="25" viewBox="0 0 211 25" fill="none" xmlns="http://www.w3.org/2000/svg">
<path d="M9.59375 3.29688H14.6562C16.0104 3.29688 17.2604 3.52083 18.4062 3.96875C19.5521 4.40625 20.5469 5.04167 21.3906 5.875C22.2448 6.69792 22.9062 7.69271 23.375 8.85938C23.8438 10.0156 24.0781 11.3073 24.0781 12.7344C24.0781 14.1302 23.8438 15.401 23.375 16.5469C22.9062 17.6823 22.2448 18.6562 21.3906 19.4688C20.5469 20.2812 19.5521 20.9062 18.4062 21.3438C17.2604 21.7812 16.0104 22 14.6562 22H9.59375C8.22917 22 6.97396 21.7812 5.82812 21.3438C4.68229 20.9062 3.68229 20.2865 2.82812 19.4844C1.97396 18.6719 1.30729 17.6979 0.828125 16.5625C0.359375 15.4271 0.125 14.1615 0.125 12.7656C0.125 11.3385 0.359375 10.0469 0.828125 8.89062C1.30729 7.72396 1.97396 6.72396 2.82812 5.89062C3.68229 5.05729 4.68229 4.41667 5.82812 3.96875C6.97396 3.52083 8.22917 3.29688 9.59375 3.29688ZM9.59375 7.04688C8.59375 7.04688 7.71354 7.26562 6.95312 7.70312C6.19271 8.14062 5.60417 8.78646 5.1875 9.64062C4.77083 10.4844 4.5625 11.526 4.5625 12.7656C4.5625 13.6615 4.68229 14.4531 4.92188 15.1406C5.17188 15.8177 5.52083 16.3854 5.96875 16.8438C6.41667 17.3021 6.94792 17.651 7.5625 17.8906C8.17708 18.1302 8.85417 18.25 9.59375 18.25H14.6875C15.6771 18.25 16.5417 18.0365 17.2812 17.6094C18.0312 17.1823 18.6146 16.5573 19.0312 15.7344C19.4479 14.9115 19.6562 13.9115 19.6562 12.7344C19.6562 11.8073 19.5365 10.9896 19.2969 10.2812C19.0573 9.57292 18.7188 8.97917 18.2812 8.5C17.8438 8.02083 17.3177 7.66146 16.7031 7.42188C16.099 7.17188 15.4271 7.04688 14.6875 7.04688H9.59375ZM14.375 0.3125V24.9375H9.875V0.3125H14.375ZM31.3594 17.7188L37.0312 7.09375H41.5312V24H37.0312V13.3594L31.3594 24H26.8594V7.09375H31.3594V17.7188ZM56.375 7.09375V10.625H48.0625V7.09375H56.375ZM59.6719 7.09375V24H55.1719V7.09375H59.6719ZM46.9375 7.09375H51.3594L50.9062 15.625C50.8438 16.8438 50.7135 17.9167 50.5156 18.8438C50.3177 19.7708 50.0521 20.5625 49.7188 21.2188C49.3958 21.875 49.0052 22.4115 48.5469 22.8281C48.099 23.2344 47.5729 23.5312 46.9688 23.7188C46.375 23.9062 45.7188 24 45 24H43.625L43.5781 20.4531L44.1562 20.3906C44.4896 20.3594 44.7812 20.2656 45.0312 20.1094C45.2917 19.9427 45.5104 19.7083 45.6875 19.4062C45.875 19.0938 46.0312 18.7031 46.1562 18.2344C46.2812 17.7552 46.3802 17.1927 46.4531 16.5469C46.5365 15.901 46.5938 15.1562 46.625 14.3125L46.9375 7.09375ZM66.2656 12.1094H71.1719C72.7135 12.1094 74.026 12.3646 75.1094 12.875C76.2031 13.375 77.0365 14.0729 77.6094 14.9688C78.1927 15.8646 78.4844 16.901 78.4844 18.0781C78.4844 18.9323 78.3177 19.724 77.9844 20.4531C77.6615 21.1719 77.1875 21.7969 76.5625 22.3281C75.9375 22.8594 75.1719 23.2708 74.2656 23.5625C73.3594 23.8542 72.3281 24 71.1719 24H63.4531V7.09375H67.9688V20.5H71.1719C71.849 20.5 72.3906 20.3906 72.7969 20.1719C73.2135 19.9427 73.5156 19.6458 73.7031 19.2812C73.901 18.9167 74 18.5208 74 18.0938C74 17.6458 73.901 17.2396 73.7031 16.875C73.5156 16.5 73.2135 16.1979 72.7969 15.9688C72.3906 15.7396 71.849 15.625 71.1719 15.625H66.2656V12.1094ZM91.3125 18.8281L95.75 7.09375H99.4219L92.8281 24H89.7969L83.2344 7.09375H86.9062L91.3125 18.8281ZM85.8281 7.09375V24H81.3281V7.09375H85.8281ZM96.9062 24V7.09375H101.406V24H96.9062ZM104.625 15.7188V15.3906C104.625 14.151 104.802 13.0104 105.156 11.9688C105.51 10.9167 106.026 10.0052 106.703 9.23438C107.38 8.46354 108.214 7.86458 109.203 7.4375C110.193 7 111.328 6.78125 112.609 6.78125C113.891 6.78125 115.031 7 116.031 7.4375C117.031 7.86458 117.87 8.46354 118.547 9.23438C119.234 10.0052 119.755 10.9167 120.109 11.9688C120.464 13.0104 120.641 14.151 120.641 15.3906V15.7188C120.641 16.9479 120.464 18.0885 120.109 19.1406C119.755 20.1823 119.234 21.0938 118.547 21.875C117.87 22.6458 117.036 23.2448 116.047 23.6719C115.057 24.099 113.922 24.3125 112.641 24.3125C111.359 24.3125 110.219 24.099 109.219 23.6719C108.229 23.2448 107.391 22.6458 106.703 21.875C106.026 21.0938 105.51 20.1823 105.156 19.1406C104.802 18.0885 104.625 16.9479 104.625 15.7188ZM109.125 15.3906V15.7188C109.125 16.4271 109.188 17.0885 109.312 17.7031C109.438 18.3177 109.635 18.8594 109.906 19.3281C110.188 19.7865 110.552 20.1458 111 20.4062C111.448 20.6667 111.995 20.7969 112.641 20.7969C113.266 20.7969 113.802 20.6667 114.25 20.4062C114.698 20.1458 115.057 19.7865 115.328 19.3281C115.599 18.8594 115.797 18.3177 115.922 17.7031C116.057 17.0885 116.125 16.4271 116.125 15.7188V15.3906C116.125 14.7031 116.057 14.0573 115.922 13.4531C115.797 12.8385 115.594 12.2969 115.312 11.8281C115.042 11.349 114.682 10.974 114.234 10.7031C113.786 10.4323 113.245 10.2969 112.609 10.2969C111.974 10.2969 111.432 10.4323 110.984 10.7031C110.547 10.974 110.188 11.349 109.906 11.8281C109.635 12.2969 109.438 12.8385 109.312 13.4531C109.188 14.0573 109.125 14.7031 109.125 15.3906ZM134.781 7.09375V10.625H126.594V7.09375H134.781ZM127.891 7.09375V24H123.391V7.09375H127.891ZM138.062 7.09375V24H133.547V7.09375H138.062ZM140.812 15.7188V15.3906C140.812 14.151 140.99 13.0104 141.344 11.9688C141.698 10.9167 142.214 10.0052 142.891 9.23438C143.568 8.46354 144.401 7.86458 145.391 7.4375C146.38 7 147.516 6.78125 148.797 6.78125C150.078 6.78125 151.219 7 152.219 7.4375C153.219 7.86458 154.057 8.46354 154.734 9.23438C155.422 10.0052 155.943 10.9167 156.297 11.9688C156.651 13.0104 156.828 14.151 156.828 15.3906V15.7188C156.828 16.9479 156.651 18.0885 156.297 19.1406C155.943 20.1823 155.422 21.0938 154.734 21.875C154.057 22.6458 153.224 23.2448 152.234 23.6719C151.245 24.099 150.109 24.3125 148.828 24.3125C147.547 24.3125 146.406 24.099 145.406 23.6719C144.417 23.2448 143.578 22.6458 142.891 21.875C142.214 21.0938 141.698 20.1823 141.344 19.1406C140.99 18.0885 140.812 16.9479 140.812 15.7188ZM145.312 15.3906V15.7188C145.312 16.4271 145.375 17.0885 145.5 17.7031C145.625 18.3177 145.823 18.8594 146.094 19.3281C146.375 19.7865 146.74 20.1458 147.188 20.4062C147.635 20.6667 148.182 20.7969 148.828 20.7969C149.453 20.7969 149.99 20.6667 150.438 20.4062C150.885 20.1458 151.245 19.7865 151.516 19.3281C151.786 18.8594 151.984 18.3177 152.109 17.7031C152.245 17.0885 152.312 16.4271 152.312 15.7188V15.3906C152.312 14.7031 152.245 14.0573 152.109 13.4531C151.984 12.8385 151.781 12.2969 151.5 11.8281C151.229 11.349 150.87 10.974 150.422 10.7031C149.974 10.4323 149.432 10.2969 148.797 10.2969C148.161 10.2969 147.62 10.4323 147.172 10.7031C146.734 10.974 146.375 11.349 146.094 11.8281C145.823 12.2969 145.625 12.8385 145.5 13.4531C145.375 14.0573 145.312 14.7031 145.312 15.3906ZM164.078 17.7188L169.75 7.09375H174.25V24H169.75V13.3594L164.078 24H159.578V7.09375H164.078V17.7188ZM184.703 20.7969C185.255 20.7969 185.745 20.6927 186.172 20.4844C186.599 20.2656 186.932 19.9635 187.172 19.5781C187.422 19.1823 187.552 18.7188 187.562 18.1875H191.797C191.786 19.375 191.469 20.4323 190.844 21.3594C190.219 22.276 189.38 23 188.328 23.5312C187.276 24.0521 186.099 24.3125 184.797 24.3125C183.484 24.3125 182.339 24.0938 181.359 23.6562C180.391 23.2188 179.583 22.6146 178.938 21.8438C178.292 21.0625 177.807 20.1562 177.484 19.125C177.161 18.0833 177 16.9688 177 15.7812V15.3281C177 14.1302 177.161 13.0156 177.484 11.9844C177.807 10.9427 178.292 10.0365 178.938 9.26562C179.583 8.48438 180.391 7.875 181.359 7.4375C182.328 7 183.464 6.78125 184.766 6.78125C186.151 6.78125 187.365 7.04688 188.406 7.57812C189.458 8.10938 190.281 8.86979 190.875 9.85938C191.479 10.8385 191.786 12 191.797 13.3438H187.562C187.552 12.7812 187.432 12.2708 187.203 11.8125C186.984 11.3542 186.661 10.9896 186.234 10.7188C185.818 10.4375 185.302 10.2969 184.688 10.2969C184.031 10.2969 183.495 10.4375 183.078 10.7188C182.661 10.9896 182.339 11.3646 182.109 11.8438C181.88 12.3125 181.719 12.849 181.625 13.4531C181.542 14.0469 181.5 14.6719 181.5 15.3281V15.7812C181.5 16.4375 181.542 17.0677 181.625 17.6719C181.708 18.276 181.865 18.8125 182.094 19.2812C182.333 19.75 182.661 20.1198 183.078 20.3906C183.495 20.6615 184.036 20.7969 184.703 20.7969ZM199.203 7.09375V24H194.703V7.09375H199.203ZM210.188 7.09375L202.906 17.6719H198.406L197.859 13.5156H200.844L204.484 7.09375H210.188ZM204.688 24L200.531 16.8594L204.453 14.6875L210.719 24H204.688Z" fill="white"/>
</svg>
